Coordinates
version=1
nRows=20
nColumns=34
inDegrees=yes

Units are S.I. units (second, meters, Newtons, ...)
If the header above contains a line with 'inDegrees', this indicates whether rotational values are in degrees (yes) or radians (no).

endheader
time	pelvis_tilt	pelvis_list	pelvis_rotation	pelvis_tx	pelvis_ty	pelvis_tz	hip_flexion_r	hip_adduction_r	hip_rotation_r	knee_angle_r	ankle_angle_r	subtalar_angle_r	mtp_angle_r	hip_flexion_l	hip_adduction_l	hip_rotation_l	knee_angle_l	ankle_angle_l	subtalar_angle_l	mtp_angle_l	lumbar_extension	lumbar_bending	lumbar_rotation	arm_flex_r	arm_add_r	arm_rot_r	elbow_flex_r	pro_sup_r	arm_flex_l	arm_add_l	arm_rot_l	elbow_flex_l	pro_sup_l
      0.00000000	      6.43269295	      0.32749207	     -1.03127079	      0.13343130	      0.90262753	     -0.17059836	      6.25435278	     -2.80542529	      5.94252564	     29.75444943	      1.61423927	    -21.58468610	      0.00000000	    -10.63408849	      5.20934915	     -0.81689597	      3.13252363	     10.48154717	     -6.01680337	      0.00000000	     -1.36381097	      1.71906901	      2.67915175	     43.15612218	      8.51329985	     51.27970764	    121.13720694	    113.08632494	     53.17144313	     11.21889062	     65.92036145	    113.54380187	     94.84992821
      0.01666670	      3.87402424	      1.39741103	      0.10871208	      0.13584079	      0.89780389	     -0.17222401	      9.37168481	     -3.72215250	      6.30178172	     29.70360363	      6.83182590	    -16.40364450	      0.00000000	     -6.77462903	      6.56377929	     -1.66161780	      4.31681127	     10.23249852	     -3.83450241	      0.00000000	      2.62762612	      0.67357440	     -0.21688597	     43.91835883	     10.30219278	     51.73027011	    121.79639394	    111.40503935	     54.97238393	      9.53819435	     63.31626711	    116.20106021	     95.78676228
      0.03333330	      3.01914621	      2.36933235	      0.20886508	      0.13722298	      0.89462923	     -0.17274397	     10.66341193	     -4.92071392	      6.67919751	     30.16079347	      7.74019015	    -16.12211212	      0.00000000	     -5.57387617	      7.58671338	     -2.90606970	      4.64620623	      9.39020795	     -2.07834043	      0.00000000	      3.81288080	     -0.53837564	     -0.45696045	     43.92992053	     10.42798383	     51.98657040	    123.21195721	    110.94909639	     55.45724318	      8.85508564	     62.48915493	    117.74890817	     95.92918841
      0.05000000	      2.44698236	      3.11900475	      0.35195479	      0.13672540	      0.89734179	     -0.17276034	     11.75631150	     -5.61969189	      7.05121064	     30.93641161	      8.46346680	    -16.17862073	      0.00000000	     -5.11822338	      8.44035290	     -3.44075873	      4.43793450	      8.91356525	     -0.34662742	      0.00000000	      4.74242837	     -1.46530116	     -0.24379530	     43.26999916	     10.22285581	     53.69214145	    122.61426795	    110.40494055	     55.07725883	      8.40764340	     62.80399990	    117.61032549	     95.99628364
      0.06666670	      2.45155684	      3.46407036	      0.75658041	      0.13930720	      0.89543227	     -0.17405909	     12.14342032	     -5.87612275	      6.98361230	     31.72215984	      8.90666668	    -16.62923301	      0.00000000	     -5.44220391	      8.80429888	     -2.81858497	      4.00928780	      8.89014713	      0.42140957	      0.00000000	      4.90207422	     -1.79965198	     -0.37032159	     42.38601901	      9.96370415	     54.39379634	    122.80030146	    110.26386843	     54.84773660	      8.10858889	     62.93562546	    117.66046307	     95.96042301
      0.08333330	      2.59193842	      3.50941984	      0.80551719	      0.13705567	      0.89675710	     -0.17507965	     12.59066603	     -5.76910043	      6.95075618	     32.57863004	      9.03456173	    -16.85188648	      0.00000000	     -5.52843297	      8.84205475	     -2.63655290	      4.00384194	      8.83992427	      0.68036509	      0.00000000	      4.72047278	     -1.82434227	     -0.56459838	     42.08865357	      9.77557677	     54.60479230	    122.77809853	    110.20930596	     54.59773158	      8.05960027	     63.10083656	    117.61960915	     95.93205744
      0.10000000	      2.28599452	      3.78082371	      1.17029770	      0.13640086	      0.89698020	     -0.17457597	     13.69349830	     -5.88887849	      7.01780276	     33.76850616	      9.41484893	    -17.87451544	      0.00000000	     -5.17911789	      9.04714575	     -2.39969841	      3.90048994	      8.82125736	      1.36553357	      0.00000000	      5.04347737	     -2.33425978	     -0.73337992	     41.87374943	      9.63695183	     55.04756911	    122.35188087	    109.93553963	     54.29171457	      8.06085724	     63.59960814	    117.72598791	     95.72545036
      0.11666670	      2.38921532	      3.61410966	      1.20953556	      0.13390784	      0.89859678	     -0.17526333	     14.33415580	     -5.58999734	      6.94831412	     34.74672439	      9.26496296	    -18.01970657	      0.00000000	     -5.11548317	      8.82772047	     -2.32302604	      4.01472654	      8.78122120	      1.49530205	      0.00000000	      4.68686779	     -2.12435727	     -0.93400335	     41.79482086	      9.49872519	     55.08450474	    122.28998914	    109.86861509	     54.12564284	      7.92803461	     63.72759997	    117.60859307	     95.66489060
      0.13333330	      1.93331276	      3.53282844	      1.33766335	      0.13456824	      0.90064764	     -0.17499320	     15.49693478	     -5.28824682	      6.93456990	     35.61216889	      8.57577925	    -18.97799002	      0.00000000	     -4.42513316	      8.67214527	     -2.55900194	      4.19277014	      8.25244620	      1.96177857	      0.00000000	      5.06066965	     -2.17726884	     -1.70700828	     41.90773176	      9.78500774	     55.29555560	    122.49320839	    109.46082024	     53.56168267	      7.35124324	     64.18425577	    117.42260158	     95.22600141
      0.15000000	      1.91137910	      3.33285144	      1.25468850	      0.13171871	      0.90097651	     -0.17502389	     16.22456341	     -4.74484415	      7.32974165	     36.39152385	      7.79956738	    -20.37915099	      0.00000000	     -4.14190869	      8.41457964	     -2.72269426	      4.49731982	      8.28601100	      2.15934029	      0.00000000	      4.87008673	     -1.74647153	     -2.14881510	     42.14219621	     10.02341946	     56.11586169	    120.87388163	    101.09878925	     53.07486806	      6.85816388	     64.34088705	    118.28628744	     85.06514799
      0.16666670	      2.00484418	      3.13735867	      1.29522857	      0.13065100	      0.90137646	     -0.17391063	     16.77909277	     -4.31981749	      7.13633962	     37.12846294	      7.75298414	    -20.41981520	      0.00000000	     -4.08483798	      8.14063725	     -2.68516196	      4.55367386	      8.10495963	      2.24785494	      0.00000000	      4.42474020	     -1.79137903	     -2.45183794	     42.10513898	      9.80259563	     55.95653068	    120.77681492	    101.08864153	     52.99156442	      6.88884824	     64.44083841	    118.23634427	     85.04057786
      0.18333330	      2.10520952	      2.93459720	      1.37145293	      0.13096798	      0.90223322	     -0.17412284	     17.37550304	     -3.89442956	      6.87835144	     37.96675260	      7.77772957	    -20.54040016	      0.00000000	     -4.04014044	      7.86289606	     -2.64879823	      4.71256034	      7.85646097	      2.36752812	      0.00000000	      4.04703685	     -1.71628134	     -2.72898739	     42.13337893	      9.75379290	     55.68498864	    120.73622003	    101.06940069	     52.86832743	      6.90144176	     64.58310305	    118.21670974	     85.00551517
      0.20000000	      1.81697999	      2.72385481	      1.82792810	      0.13060797	      0.90488033	     -0.17361277	     18.25243610	     -3.48544314	      6.38390894	     38.50755758	      8.10684830	    -20.81069072	      0.00000000	     -3.41178674	      7.50938340	     -2.54498384	      5.14918913	      7.78279714	      2.46381562	      0.00000000	      3.96440698	     -1.71978914	     -3.34176353	     41.68629936	     10.13470735	     54.44191004	    120.80575022	    100.94564185	     52.72136165	      6.72669762	     65.05626594	    118.75898217	     84.69067300
      0.21666670	      1.93728296	      2.44849488	      1.93736140	      0.12820097	      0.90633091	     -0.17377056	     19.02073301	     -2.99082199	      5.94051278	     39.23512171	      8.13614106	    -20.99605129	      0.00000000	     -3.21759989	      7.11379876	     -2.52641075	      5.47290695	      7.42603672	      2.60260269	      0.00000000	      3.32907585	     -1.44518871	     -3.54109928	     41.58831737	     10.12073409	     53.85053570	    120.54827639	    100.88084628	     52.71149157	      6.77182513	     65.04390997	    118.81762146	     84.51840009
      0.23333330	      2.16916844	      2.24247642	      1.94645364	      0.12773753	      0.90759801	     -0.17299327	     19.68054175	     -2.50696264	      5.53564606	     39.99774704	      7.92782933	    -21.00770849	      0.00000000	     -3.25800751	      6.81003216	     -2.54943186	      5.56263371	      7.20867295	      2.67270338	      0.00000000	      2.82115121	     -1.34129637	     -3.65811641	     41.34291453	     10.17980522	     53.82455527	    120.56223930	    100.86812231	     52.53246518	      6.69239496	     65.10812643	    118.76785120	     84.47449038
      0.25000000	      2.34673456	      1.99874279	      1.96590904	      0.12850359	      0.90707493	     -0.17358727	     20.38895430	     -2.05499313	      5.07211587	     40.66762116	      7.72804811	    -21.07626876	      0.00000000	     -3.36447896	      6.49971601	     -2.59563507	      5.60485265	      6.93773042	      2.76099026	      0.00000000	      2.45478937	     -1.14120190	     -3.84153677	     41.26089097	     10.29482502	     53.70091074	    120.60836564	    100.84968339	     52.57598055	      6.67748432	     65.08397795	    118.73082392	     84.42705797
      0.26666670	      2.51541402	      1.72640065	      2.00072747	      0.12696735	      0.90635537	     -0.17275019	     21.10222722	     -1.61873907	      4.45160330	     41.09924615	      7.29393565	    -21.36023014	      0.00000000	     -3.16830326	      6.12779259	     -2.71932695	      6.03118198	      6.24026426	      2.89896618	      0.00000000	      2.14998878	     -0.89667818	     -4.16484123	     41.44297960	     10.78809017	     53.29144028	    120.61939588	    100.77967160	     53.00004980	      6.80329527	     64.92234623	    118.77298276	     84.25121578
      0.28333330	      2.72287690	      1.59282366	      2.10327659	      0.12663348	      0.90701231	     -0.17225965	     21.79700802	     -1.33491758	      3.88295228	     41.63423093	      6.86689035	    -21.81884102	      0.00000000	     -3.12177220	      5.90684007	     -2.60668078	      6.28303158	      5.70704209	      3.06474503	      0.00000000	      1.92275395	     -0.84710825	     -4.26133198	     41.52833363	     10.96126578	     53.08436018	    120.32936505	    100.70774300	     53.24381967	      6.83916397	     64.84147316	    118.74930364	     84.04237786
      0.30000000	      2.83548548	      1.51619958	      2.11954198	      0.12326508	      0.91036791	     -0.17219533	     22.57346317	     -1.01908934	      3.73266204	     41.77251998	      5.68562059	    -23.20296530	      0.00000000	     -2.83988355	      5.79161453	     -2.33456300	      6.48882960	      4.92203354	      2.71351349	      0.00000000	      1.64584071	     -0.81316944	     -4.53167045	     41.67779059	     11.10497710	     53.41641942	    119.74740666	    100.48132685	     53.41019250	      6.56811483	     65.21601288	    118.49361693	     83.19476324
      0.31666670	      3.06562870	      1.43574545	      2.37070460	      0.12423599	      0.91082238	     -0.17209955	     23.03846524	     -0.83949916	      3.34564198	     41.80260923	      5.47707240	    -23.20936353	      0.00000000	     -2.57507043	      5.59821663	     -2.24935057	      7.01327289	      4.43192218	      2.85406452	      0.00000000	      1.25627576	     -0.78802614	     -4.42503447	     41.85722191	     10.99545695	     53.28712099	    119.46311281	    100.42757001	     53.57303617	      6.75522436	     65.14776185	    118.51828831	     83.01758319
